<?xml version="1.0" encoding="utf-8"?>
<!-- Generator: Adobe Illustrator 25.4.1, SVG Export Plug-In . SVG Version: 6.00 Build 0)  -->
<svg version="1.1" id="Capa_1" xmlns="http://www.w3.org/2000/svg" xmlns:xlink="http://www.w3.org/1999/xlink" x="0px" y="0px"
	 viewBox="0 0 123 93" style="enable-background:new 0 0 123 93;" xml:space="preserve">
<g>
	<path d="M87.6,29c3.6-6-0.9-13.6-7.8-13.5C80,8.7,72.4,4.2,66.4,7.8c-1.6-2.8-4.5-4.5-7.8-4.5c-3.3,0-6.2,1.8-7.8,4.5
		c-6-3.6-13.6,0.9-13.5,7.8C30.5,15.4,26,22.9,29.6,29c-2.8,1.6-4.5,4.5-4.5,7.8c0,3.3,1.8,6.2,4.5,7.8C26.1,50.4,30.2,58,37.3,58
		c0,2,0.7,4,1.9,5.6c0,0,0,0,0,0c-4.8,7.1-10,14.1-12.9,21.9c-0.1,0.1,0.1,0.2,0.2,0.1c3.3-1.9,6.9-3.7,10.6-5.4
		c0.1,0,0.2,0,0.2,0.1c0.7,3.3,1.4,6.7,2.5,10.2c0,0.1,0.2,0.1,0.2,0c2.9-7.9,8.2-14.9,13-22.1c2.3,1.8,5.3,2.5,8.4,1.4
		c4.6,6.7,9.3,13.3,12.1,20.7c0,0.1,0.2,0.1,0.2,0c1.1-3.5,1.9-6.9,2.5-10.2c0-0.1,0.1-0.1,0.2-0.1c3.8,1.7,7.3,3.5,10.6,5.4
		c0.1,0.1,0.2,0,0.2-0.1c-2.6-7.1-7.1-13.4-11.5-19.9c2.6-1.7,4.1-4.6,4.1-7.6c6.9,0.1,11.3-7.5,7.8-13.5
		C93.7,41.1,93.7,32.4,87.6,29z M85.2,42.5l-0.7,0.2c-0.1,0.4-0.8,1.4,0,2.4c3.9,4.3,0,11.1-5.7,9.9c-1.4-0.3-1.9,1.1-2.2,1.3
		l0.3,0.7c1.1,5.7-5.7,9.4-10,5.6c-1-0.8-2.1,0-2.4,0.1l-0.2,0.7c-1.9,5.5-9.6,5.4-11.4,0l-0.2-0.7l-0.8-0.3
		c-0.5-0.2-1.1-0.1-1.6,0.3c-2.3,2.1-6.2,2.2-8.6-0.6c-1.2-1.4-1.7-3.3-1.4-5.1c0.1-0.5,0-1-0.3-1.4l-0.8-0.8L38.4,55
		c-5.7,1.1-9.5-5.6-5.6-9.9c0.4-0.4,0.5-1.1,0.3-1.6l-0.4-0.9L32,42.5c-2.4-0.8-4.1-3.1-4.1-5.7c0-2.6,1.7-4.9,4.2-5.7
		c1.2-0.4,1.1-1.7,1.2-2l-0.5-0.6c-3.9-4.3,0.1-11.1,5.7-9.9c1.4,0.3,1.9-1.1,2.2-1.4l-0.3-0.7c-1-5.6,5.6-9.4,9.9-5.6l0.2,0.1
		c0.5,0.3,1,0.4,1.5,0.1l0.8-0.4l0.1-0.7c0.9-2.4,3.1-4,5.7-4c2.6,0,4.9,1.7,5.7,4.1l0.2,0.7c0.4,0.1,1.3,0.8,2.3,0.2l0.2-0.1
		c1.9-1.8,4.8-2.1,7-0.7c2.2,1.3,3.4,3.9,2.9,6.4c-0.4,1.2,0.8,1.8,1.1,2.2l0.8-0.3c5.6-1.2,9.5,5.6,5.7,9.9c-0.9,0.9-0.2,2-0.2,2.4
		l0.8,0.3C90.6,32.9,90.6,40.6,85.2,42.5z"/>
	<path d="M58.6,16.4c-11.3,0-20.4,9.1-20.4,20.4c0,11.3,9.1,20.4,20.4,20.4S79,48.1,79,36.8C79,25.5,69.9,16.4,58.6,16.4z
		 M71.7,33.8l-6.4,6.3c0,0,0,0.1,0,0.1l1.6,8.9c0,0.1-0.1,0.1-0.1,0.1l-8-4.2c0,0-0.1,0-0.1,0l-8,4.3c-0.1,0-0.1,0-0.1-0.1l1.5-8.9
		c0,0,0-0.1,0-0.1L45.4,34c0-0.1,0-0.1,0.1-0.2l8.9-1.3c0,0,0,0,0.1-0.1l4-8.1c0-0.1,0.1-0.1,0.2,0l4,8.1c0,0,0,0,0.1,0l9,1.2
		C71.8,33.7,71.8,33.7,71.7,33.8z"/>
</g>
</svg>
