<?xml version="1.0" encoding="utf-8"?>
<!-- Generator: Adobe Illustrator 25.4.1, SVG Export Plug-In . SVG Version: 6.00 Build 0)  -->
<svg version="1.1" id="Capa_1" xmlns="http://www.w3.org/2000/svg" xmlns:xlink="http://www.w3.org/1999/xlink" x="0px" y="0px"
	 viewBox="0 0 93 93" style="enable-background:new 0 0 93 93;" xml:space="preserve">
<g>
	<path d="M46.5,1.1C21.4,1.1,1.1,21.4,1.1,46.5c0,25.1,20.3,45.4,45.4,45.4s45.4-20.3,45.4-45.4C91.9,21.4,71.6,1.1,46.5,1.1z
		 M49.3,86.1v-5.5h-5.7v5.5C24,84.7,8.3,69,6.9,49.3h5.5v-5.7H6.9C8.3,24,24,8.3,43.7,6.9v5.5h5.7V6.9C69,8.3,84.7,24,86.1,43.7
		h-5.5v5.7h5.5C84.7,69,69,84.7,49.3,86.1z M67.4,34.4c0.4,0.7,0.2,1.5-0.5,1.9l-15,8.7c0.1,0.5,0.3,0.9,0.3,1.5
		c0,3.1-2.5,5.7-5.7,5.7c-3.1,0-5.7-2.5-5.7-5.7l-15.4-8.9c-1.4-0.8-1.8-2.5-1-3.9c0.8-1.4,2.5-1.8,3.9-1l15.5,9
		c0.8-0.5,1.7-0.8,2.8-0.8c1.6,0,3,0.7,4,1.7l14.9-8.6C66.1,33.5,67,33.7,67.4,34.4z"/>
</g>
</svg>
