<?xml version="1.0" encoding="utf-8"?>
<!-- Generator: Adobe Illustrator 25.4.1, SVG Export Plug-In . SVG Version: 6.00 Build 0)  -->
<svg version="1.1" id="Capa_1" xmlns="http://www.w3.org/2000/svg" xmlns:xlink="http://www.w3.org/1999/xlink" x="0px" y="0px"
	 viewBox="0 0 119.3 93" style="enable-background:new 0 0 119.3 93;" xml:space="preserve">
<g>
	<path d="M111.3,65.1l-0.4-1.1c-0.2-0.6-0.3-0.9-0.4-1c-1.1-3-4-4.8-7.1-4.7c-0.3,0-0.5,0-0.9,0c-2,0.2-3.9,0.5-5.8,0.8l-0.7,0.1
		c-1.7,0.3-3.6,0.6-5.4,0.8c-4.1,0.5-8.3,0.7-12.4,0.6c-3.3-0.1-6.7-0.4-10-0.8c0.1-1.2-0.2-2.3-0.7-3.4c-1-2-2.7-3.4-4.8-4L46,47.8
		c-2.7-0.7-5.6-0.8-8.4-0.2L31,49.1v-5.4c0-2.2-1.8-4-4-4H13.7c-2.2,0-4,1.8-4,4v44.4c0,2.2,1.8,4,4,4h13.3c2.2,0,4-1.8,4-4V84
		l28.7,5.2c1.3,0.2,2.7,0.4,4.1,0.4c0,0,0.1,0,0.1,0c2.9,0,5.8-0.5,8.5-1.6l34.6-13.7C110.7,72.9,112.7,68.8,111.3,65.1z M44.8,52.2
		l16.8,4.6c0.8,0.2,1.5,0.8,1.9,1.5c0.3,0.7,0.3,1.5,0,2.1c-0.5,1.2-1.8,1.9-3,1.8l-14.6-3c-1.2-0.3-2.4,0.5-2.7,1.8
		c-0.3,1.2,0.5,2.4,1.8,2.7l14.7,3c0.1,0,0.2,0,0.2,0c0.2,0,0.4,0,0.6,0c0,0,0.1,0,0.1,0c2.3,0,4.4-1,5.9-2.7
		c3.8,0.6,7.7,0.9,11.5,1c4.3,0.1,8.7-0.1,13-0.6c1.7-0.2,3.5-0.5,5.7-0.8c2.1-0.3,4.1-0.7,6.2-0.9c1.3-0.3,2.6,0.4,3.2,1.6l0.8,2.1
		c0.5,1.4-0.3,3-1.7,3.4L70.8,83.8c-3.2,1.3-6.8,1.6-10.2,1L31,79.4V53.8l7.6-1.7C40.7,51.6,42.8,51.7,44.8,52.2z M26.4,44.2v43.4
		H14.2V44.2H26.4z"/>
	<path d="M53.7,33.8l-0.8,5.9c-0.2,1.1,0.4,2.1,1.4,2.4l5.5,2.2l2.2,5.5c0.4,1,1.4,1.6,2.4,1.4l5.9-0.8l4.7,3.7
		c0.4,0.3,0.9,0.5,1.4,0.5c0,0,0,0,0,0c0.5,0,1-0.2,1.4-0.5l4.7-3.7l5.9,0.8c1,0.1,2-0.4,2.4-1.4l2.2-5.5l5.5-2.2
		c1-0.4,1.6-1.4,1.4-2.4L99,33.8l3.7-4.7c0.6-0.8,0.6-2,0-2.8L99,21.6l0.8-5.9c0.1-1-0.4-2-1.4-2.4l-5.5-2.2l-2.2-5.5
		c-0.4-1-1.4-1.6-2.4-1.4L82.4,5l-4.7-3.6c-0.8-0.7-2-0.7-2.8,0L70.3,5l-5.9-0.8c-1-0.1-2,0.4-2.4,1.4l-2.2,5.5l-5.5,2.2
		c-1,0.4-1.5,1.4-1.4,2.4l0.8,5.9L50,26.3c-0.6,0.8-0.6,2,0,2.8L53.7,33.8z M58.3,21.9l-0.7-5.1l4.7-1.9c0.6-0.2,1-0.7,1.3-1.3
		l1.9-4.7l5.1,0.7c0.6,0.1,1.2-0.1,1.7-0.5l4-3.2l4,3.2c0.5,0.4,1.1,0.5,1.7,0.5l5.1-0.7l1.9,4.7c0.2,0.6,0.7,1,1.3,1.3l4.8,1.9
		l-0.7,5.1c-0.1,0.6,0.1,1.2,0.5,1.7l3.2,4l-3.2,4c-0.4,0.5-0.5,1.1-0.5,1.7l0.7,5.1l-4.8,1.9c-0.6,0.2-1,0.7-1.3,1.3l-1.9,4.7
		l-5.1-0.7c-0.6-0.1-1.2,0.1-1.7,0.5l-4,3.1l-4-3.1c-0.4-0.3-0.9-0.5-1.4-0.5c-0.1,0-0.1,0-0.2,0l-5.2,0.7l-1.9-4.7
		c-0.2-0.6-0.7-1-1.3-1.3l-4.7-1.9l0.7-5.1c0.1-0.6-0.1-1.2-0.5-1.7l-3.2-4l3.2-4C58.3,23.1,58.4,22.5,58.3,21.9z"/>
	<path d="M67.5,27.3c3.2,0,5.8-2.6,5.8-5.8c0-3.2-2.6-5.8-5.8-5.8c-3.2,0-5.8,2.6-5.8,5.8C61.6,24.7,64.3,27.3,67.5,27.3z
		 M66.2,21.5c0-0.7,0.6-1.3,1.3-1.3s1.3,0.6,1.3,1.3s-0.6,1.3-1.3,1.3S66.2,22.2,66.2,21.5z"/>
	<path d="M79.4,33.9c0,3.2,2.6,5.8,5.8,5.8s5.8-2.6,5.8-5.8c0-3.2-2.6-5.8-5.8-5.8S79.4,30.7,79.4,33.9z M83.9,33.9
		c0-0.7,0.6-1.3,1.3-1.3s1.3,0.6,1.3,1.3s-0.6,1.3-1.3,1.3S83.9,34.6,83.9,33.9z"/>
	<path d="M65.2,35.5c0,0.6,0.2,1.2,0.6,1.6c0.4,0.5,1,0.7,1.6,0.8c0,0,0.1,0,0.1,0c0.6,0,1.1-0.2,1.5-0.6l17.7-16
		c0.5-0.4,0.7-1,0.8-1.6c0-0.6-0.2-1.2-0.6-1.6c-0.4-0.5-1-0.7-1.6-0.8c-0.6,0-1.2,0.2-1.6,0.6L65.9,34
		C65.5,34.4,65.2,34.9,65.2,35.5z"/>
</g>
</svg>
