<?xml version="1.0" encoding="utf-8"?>
<!-- Generator: Adobe Illustrator 25.4.1, SVG Export Plug-In . SVG Version: 6.00 Build 0)  -->
<svg version="1.1" id="Capa_1" xmlns="http://www.w3.org/2000/svg" xmlns:xlink="http://www.w3.org/1999/xlink" x="0px" y="0px"
	 viewBox="0 0 40.4 35.9" style="enable-background:new 0 0 40.4 35.9;" xml:space="preserve">
<path d="M39.1,9.6c-2.4-2.2-4.9-4.4-7.4-6.6c-0.1-0.2-0.4-0.3-0.6-0.4c-1.8-0.6-3.5-1.3-5.3-1.9c-0.1-0.1-0.2-0.1-0.3-0.2h-0.1
	l-0.1-0.1c0,0-0.1,0-0.2,0.1h0c0,0,0,0,0,0c-0.7,0.3-2.7,1-5.1,0.9c-2.9-0.1-4.7-1-4.7-1H15c-0.1,0.1-0.2,0.2-0.3,0.2
	C13,1.2,11.2,1.9,9.5,2.5C9.2,2.6,8.9,2.8,8.7,3C6.1,5.2,3.6,7.5,1.1,9.7c-0.6,0.5-0.6,0.9,0,1.5c1.9,2,3.9,4,5.9,6
	c0.2,0.2,0.3,0.4,0.3,0.7v16.9c0,0.9,0.2,1.1,1.1,1.1H32c0.9,0,1.1-0.2,1.1-1.1V17.9c0-0.3,0.1-0.5,0.3-0.7c2-1.9,3.9-3.9,5.8-5.8
	c0.2-0.2,0.4-0.5,0.6-0.7c0-0.2,0-0.3,0-0.3C39.6,10.1,39.4,9.8,39.1,9.6z M33.1,15v-3.2c0-0.5-0.3-0.8-0.8-0.8
	c-0.4,0-0.7,0.3-0.7,0.8v22.5H8.8V11.6C8.7,11.3,8.5,11,8.1,11c-0.4,0-0.7,0.2-0.8,0.6v3.5c-1.6-1.5-3.2-3-4.8-4.6
	c0.8-0.7,1.6-1.3,2.3-2C6.4,7.1,8,5.6,9.6,4.2c0.2-0.1,0.4-0.3,0.6-0.3c1.2-0.4,2.5-0.9,3.7-1.4c0.7,0.1,2.2,0.3,5.2,0.6
	c3.1,0.3,5.6-0.3,6.9-0.7c1.4,0.5,2.8,1,4.2,1.5c0.1,0,0.3,0.1,0.4,0.2c2.3,2.1,4.7,4.2,7,6.3c0,0,0,0,0.1,0.1
	C36.2,12.1,34.7,13.5,33.1,15z"/>
</svg>
