<?xml version="1.0" encoding="utf-8"?>
<!-- Generator: Adobe Illustrator 25.4.1, SVG Export Plug-In . SVG Version: 6.00 Build 0)  -->
<svg version="1.1" id="Capa_1" xmlns="http://www.w3.org/2000/svg" xmlns:xlink="http://www.w3.org/1999/xlink" x="0px" y="0px"
	 viewBox="0 0 40.4 35.9" style="enable-background:new 0 0 40.4 35.9;" xml:space="preserve">
<g id="_x35_Jqv2n.tif">
	<g>
		<path d="M39.8,10.7c-0.2,0.2-0.4,0.5-0.6,0.7c-1.9,1.9-3.8,3.9-5.8,5.8c-0.2,0.2-0.3,0.4-0.3,0.7c0,5.6,0,11.3,0,16.9
			c0,0.9-0.2,1.1-1.1,1.1c-7.9,0-15.7,0-23.6,0c-0.9,0-1.1-0.2-1.1-1.1c0-5.6,0-11.3,0-16.9c0-0.3-0.1-0.5-0.3-0.7c-2-2-4-4-5.9-6
			c-0.6-0.6-0.6-1,0-1.5c2.5-2.2,5-4.5,7.6-6.7c0.2-0.2,0.5-0.4,0.8-0.5c1.7-0.6,3.5-1.3,5.2-1.9c0.1,0,0.2-0.1,0.3-0.2
			c0.2,0,0.3,0,0.5,0c0.4,0.2,0.5,0.5,0.6,0.9c0,0.3,0.1,0.7,0.2,1c0.7,2.6,3.6,3.8,6,2.5c1.3-0.7,1.9-2,2.1-3.4
			c0.1-0.4,0.2-0.7,0.6-0.9c0.2,0,0.3,0,0.5,0c0.1,0.1,0.2,0.1,0.3,0.2c1.8,0.6,3.5,1.3,5.3,1.9c0.2,0.1,0.5,0.2,0.6,0.4
			c2.5,2.2,5,4.4,7.4,6.6c0.3,0.2,0.5,0.5,0.7,0.8C39.8,10.4,39.8,10.5,39.8,10.7z M7.3,15.1c0-0.9,0-1.9,0-3c0-0.2,0-0.4,0-0.5
			C7.4,11.2,7.7,11,8.1,11c0.4,0,0.6,0.3,0.7,0.6c0,0.2,0,0.4,0,0.5c0,7.2,0,14.4,0,21.7c0,0.2,0,0.3,0,0.5c7.6,0,15.2,0,22.8,0
			c0-0.2,0-0.3,0-0.5c0-6.1,0-12.2,0-18.3c0-1.2,0-2.5,0-3.7c0-0.5,0.3-0.8,0.7-0.8c0.5,0,0.8,0.3,0.8,0.8c0,1,0,2,0,3
			c0,0.1,0,0.2,0,0.4c0,0,0-0.1-0.1-0.1c1.6-1.5,3.2-3,4.8-4.6c-0.1-0.1-0.1-0.1-0.1-0.1c-2.3-2.1-4.7-4.2-7-6.3
			c-0.1-0.1-0.3-0.2-0.4-0.2c-1.4-0.5-2.8-1-4.2-1.5c-0.1,0-0.2-0.1-0.3-0.1c-0.7,3-3,4.4-4.9,4.5c-3.3,0.2-5.3-1.4-6.3-4.5
			c-1.5,0.5-3,1.1-4.4,1.6C10,3.9,9.8,4.1,9.6,4.2C8,5.6,6.4,7.1,4.8,8.5c-0.7,0.7-1.5,1.3-2.3,2C4.1,12.1,5.7,13.6,7.3,15.1z"/>
	</g>
</g>
</svg>
