<?xml version="1.0" encoding="utf-8"?>
<!-- Generator: Adobe Illustrator 25.4.1, SVG Export Plug-In . SVG Version: 6.00 Build 0)  -->
<svg version="1.1" id="Capa_1" xmlns="http://www.w3.org/2000/svg" xmlns:xlink="http://www.w3.org/1999/xlink" x="0px" y="0px"
	 viewBox="0 0 40.4 35.9" style="enable-background:new 0 0 40.4 35.9;" xml:space="preserve">
<g>
	<g>
		<path d="M8.7,35.5c-0.1-5.8-0.1-11.6,0.3-17.4c0.2-2.6,0.4-5.1,0.7-7.7c0-0.4,0.3-0.8,0.6-1c4.6-2.9,9.4-5.4,14.5-7.2
			c0.6-0.2,1-0.1,1.5,0.2c1.4,1.1,2.3,2.5,2.9,4.1c1.3,3.2,1.7,6.6,1.9,10c0.3,4.9-0.1,9.9-0.4,14.8c-0.1,1.4-0.2,2.7-0.2,4.1H31
			c0.1-1.2,0.1-2.4,0.2-3.6c0.3-5.1,0.8-10.2,0.4-15.4c-0.2-3.1-0.5-6.2-1.7-9.2c-0.6-1.5-1.3-3.2-2.4-4.3c-2.1-2-3.5-3-6.4-1.5
			c-3.1,1.6-6.3,3.3-9.5,4.7C10,7,9.3,8.1,9.1,9.8c-0.3,5-1,9.9-1,14.9c0,3.6,0,7.2,0.1,10.8H8.7z M10.6,7.6c4-2,8-4,11.9-6
			c0.5-0.2,1-0.6,1.7,0c-5,1.8-9.6,4.2-14,6.9c-0.1-0.1-0.2-0.1-0.2-0.2C10.2,8,10.3,7.7,10.6,7.6z"/>
		<path d="M31.4,35.9h-1.3l0-0.4c0.1-1.4,0.1-2.7,0.2-4.1l0.1-1.6c0.3-4.3,0.6-8.8,0.3-13.2c-0.2-3-0.6-6.5-1.9-9.9
			c-0.8-1.9-1.6-3.1-2.8-4c-0.4-0.3-0.7-0.3-1.1-0.2c-4.7,1.7-9.4,4-14.4,7.2C10.3,10,10,10.3,10,10.5c-0.3,2.5-0.6,5.1-0.7,7.6
			C9,23.3,8.9,29,9,35.5l0,0.4H7.9l0-0.4c-0.1-3.2-0.1-6.9-0.1-10.8c0-3.4,0.3-6.8,0.6-10.1c0.1-1.6,0.3-3.2,0.4-4.8
			c0.1-1.9,1-3.1,2.7-3.9c3-1.4,6-2.9,8.9-4.4L21,1.2c3.2-1.7,4.9-0.3,6.9,1.6c1.2,1.2,1.9,2.8,2.5,4.4c1.2,3,1.5,6.3,1.7,9.3
			c0.3,4.3,0,8.7-0.3,12.9c-0.1,0.8-0.1,1.7-0.2,2.5l0,0.7c-0.1,1-0.1,1.9-0.2,2.9L31.4,35.9z M9.8,8.6C9.6,8.9,9.6,9.3,9.5,9.7
			c0.1-0.2,0.3-0.4,0.5-0.6c5.1-3.2,9.8-5.5,14.6-7.2c0.3-0.1,0.7-0.2,1-0.1c-0.4-0.3-0.7-0.4-1.1-0.5L25,1.7l-0.7,0.2
			c-4.3,1.5-8.6,3.7-14,6.9L10.2,9L9.8,8.6z"/>
	</g>
	<g>
		<path d="M12.8,29.8c3.9,0.8,7.9,1.6,11.9,2.4c0.6,0.1,1-0.1,1.2-0.7c1.1-3,2.4-6,3.4-9.1c0.6-1.8,1-3.7,1.2-4.7
			c-0.1-3.7-0.9-6.1-3.1-7.9c-1.8-1.5-3.7-2.7-6.3-2c-3.2,0.9-5.5,2.5-6.3,6c-1,4.8-2.1,9.6-3.1,14.4C11.5,29.3,11.5,29.6,12.8,29.8
			z M20,30.7c-0.9-0.1-1.8-0.3-2.7-0.4c0-0.1,0-0.2,0-0.3c0.9,0.1,1.8,0.3,2.7,0.4C20,30.5,20,30.6,20,30.7z M14.5,18.1
			c0.3-1.4,0.6-2.8,0.9-4.2c0.5-2.3,2.1-3.6,4-4.7c0.7-0.4,1.4-0.7,2.2-0.8c2.3-0.5,4,0.7,5.5,2.1c3.4,3.3,3.2,7.3,1.7,11.3
			c-1,2.8-2.3,5.5-3.2,8.3c-0.3,1-0.6,0.9-1.4,0.6c-3.7-1.2-7.5-1.9-11.4-2.2c-0.1,0-0.3,0-0.5-0.1C13,25,13.7,21.6,14.5,18.1z"/>
		<path d="M24.9,32.6c-0.1,0-0.2,0-0.3,0l-2.3-0.4c-3.2-0.6-6.4-1.2-9.6-1.9l0,0c-0.7-0.1-1.1-0.3-1.3-0.6c-0.2-0.4-0.2-0.9,0-1.5
			c0.4-1.6,0.7-3.3,1.1-4.9c0.7-3.2,1.4-6.3,2.1-9.5c0.7-3.3,2.8-5.3,6.5-6.3c2.7-0.7,4.7,0.6,6.6,2.1c2.2,1.8,3.2,4.3,3.2,8.1
			l0,0.1l0,0c-0.1,0.3-0.1,0.6-0.2,1c-0.2,1-0.6,2.4-1,3.8c-0.6,1.8-1.3,3.7-2,5.4c-0.5,1.2-0.9,2.4-1.4,3.6
			C25.9,32.2,25.5,32.6,24.9,32.6z M20.3,31c0.7,0.1,1.4,0.3,2.1,0.4l2.3,0.4c0.4,0.1,0.6,0,0.8-0.5c0-0.1,0.1-0.2,0.1-0.3
			c-0.4,0.5-0.8,0.4-1.5,0.2c-1.2-0.4-2.5-0.7-3.7-1L20.3,31z M12.7,28.3C12.8,28.3,12.8,28.3,12.7,28.3c4.2,0.4,8,1.1,11.6,2.2
			c0.7,0.2,0.7,0.2,0.9-0.4c0.5-1.5,1.1-3.1,1.7-4.5c0.5-1.2,1-2.5,1.5-3.8c1.7-4.7,1.2-8.2-1.7-10.9c-1.3-1.3-2.9-2.5-5.1-2
			c-0.8,0.2-1.5,0.4-2.1,0.8c-1.6,0.9-3.3,2.1-3.8,4.4c-0.2,0.8-0.4,1.7-0.5,2.5c-0.1,0.6-0.3,1.1-0.4,1.7l0,0
			c-0.5,2.4-1,4.7-1.5,7.1L12.7,28.3z M12.9,29.5c1.4,0.3,2.7,0.6,4.1,0.8l0.1-0.7l0.4,0.1c-1.5-0.3-3-0.4-4.6-0.6
			c-0.1,0-0.2,0-0.3,0L12,28.9c0,0.1,0,0.2,0,0.2C12.1,29.3,12.7,29.4,12.9,29.5L12.9,29.5z M26.8,9.8c0.2,0.2,0.4,0.4,0.6,0.5
			c0.8,0.8,1.4,1.6,1.9,2.5c-0.5-1.1-1.2-2-2.1-2.7C27,10,26.9,9.9,26.8,9.8z M20,8.5c-1.4,0.5-2.4,1.2-3.2,2.2
			c0.7-0.7,1.6-1.3,2.5-1.8C19.4,8.8,19.7,8.6,20,8.5z M22.5,7.9c-0.4,0-0.8,0.1-1.2,0.2c0.1,0,0.1,0,0.2,0C22,7.9,22.5,7.9,23,8
			C22.8,7.9,22.7,7.9,22.5,7.9z"/>
	</g>
</g>
</svg>
