<?xml version="1.0" encoding="utf-8"?>
<!-- Generator: Adobe Illustrator 25.4.1, SVG Export Plug-In . SVG Version: 6.00 Build 0)  -->
<svg version="1.1" id="Capa_1" xmlns="http://www.w3.org/2000/svg" xmlns:xlink="http://www.w3.org/1999/xlink" x="0px" y="0px"
	 viewBox="0 0 240.5 234.7" style="enable-background:new 0 0 240.5 234.7;" xml:space="preserve">
<style type="text/css">
	.st0{fill:#3F74EC;}
	.st1{fill:#DB0001;}
	.st2{fill:#FFE877;}
	.st3{fill:none;}
	.st4{fill:#FFFFFF;}
	.st5{fill:#1D1D1B;}
</style>
<g>
	<circle class="st0" cx="121.5" cy="118.9" r="110.2"/>
	<g>
		<path class="st1" d="M227.8,80.5c-3,1-5.7,1.9-8.5,2.8c0.1,0.3,0.2,0.8,0.4,1.4c4.6,14.5,5.9,29.3,4,44.4
			c-6.1,48.9-46.7,88.6-99.3,90.6c-8.2,0.3-16.4-0.5-24.5-2.2c-29-6.4-51.6-22-67.4-47.2c-10.9-17.4-15.9-36.4-15.4-57
			c0-0.8-0.3-1.6-0.5-2.3c-0.6-1.8-1.4-3.6-1.8-5.4c-0.2-1.1-0.5-1.8-1.6-2.4c-2.1-1.2-4.2-2.6-4.2-5.2C9.1,95.9,9.7,94,10,92.1
			c0.2,0,0.3,0,0.5,0c-0.4-0.4-0.9-0.8-1.6-1.5c-3.9,16.3-4.3,32.3-1.1,48.4c5.3,27.1,18.7,49.6,40.1,67
			c43.7,35.4,107.9,34.1,150-5.6c20.7-19.5,32.5-43.7,35.4-72C235.1,111.8,233.1,95.7,227.8,80.5z"/>
		<path class="st1" d="M31.8,62.9C38,52.7,45.6,43.7,54.9,36.2c23.5-18.9,50.2-26.6,80.2-22.9c17.5,2.2,33.2,8.8,47.4,19.2
			c3.2,2.4,6.3,5,9.4,7.6c0.2-0.2,0.5-0.4,0.7-0.5c2.8-2.1,5.1-2,8.8,0.4c2.3,1.5,3.1,3.6,2.3,6.8c-0.3,1.3-0.8,2.6-1,3.9
			c-0.1,0.6,0.2,1.3,0.3,2c2.4-2.5,5.2-3.3,8.3-3.6C187.7,16.9,143.5-4.5,95.3,6c-23,5-42.6,16.2-58.7,33.3
			c-8.9,9.5-16,20.2-21.1,32c4.6-2.1,9.2-4.1,13.6-6.2C30.1,64.6,31.2,63.8,31.8,62.9z"/>
	</g>
	<g>
		<path class="st2" d="M65.2,129.5c0,0,0.1-7.7,4.7-10.6c4.7-2.9,9.7-3.9,9.7-3.9s1.4,5-3.2,9C71.9,127.9,65.2,129.5,65.2,129.5z"/>
		<path class="st2" d="M57.5,136c0,0-4-6.3-2.8-10.9c1.2-4.6,4.4-7.4,4.4-7.4s4.6,3.8,3.8,9.2C62,132.2,57.5,136,57.5,136z"/>
		<path class="st2" d="M61.6,140.4c0,0,1.7-7.3,5.8-9.6s8.3-2.1,8.3-2.1s0.5,6-3.9,9.1C67.4,141,61.6,140.4,61.6,140.4z"/>
		<path class="st2" d="M57,156.2c0,0-0.3-7.5,3.1-10.8s7.5-4.2,7.5-4.2s2.1,5.6-1.4,9.8C62.8,155.2,57,156.2,57,156.2z"/>
		<path class="st2" d="M53.6,149.5c0,0-5.7-4.8-5.9-9.6s1.9-8.4,1.9-8.4s5.5,2.3,6.3,7.6S53.6,149.5,53.6,149.5z"/>
		<path class="st2" d="M54.9,160.6c0,0-7.3-1.4-9.8-5.5c-2.5-4.1-2.4-8.3-2.4-8.3s6-0.7,9.2,3.6C55.2,154.7,54.9,160.6,54.9,160.6z"
			/>
		<path class="st2" d="M60.1,169.3c0,0-1.4-7.3,1.4-11.2c2.8-3.8,6.8-5.3,6.8-5.3s2.9,5.3,0.1,9.9C65.7,167.4,60.1,169.3,60.1,169.3
			z"/>
		<path class="st2" d="M66.7,181.8c0,0-3.2-6.8-1.4-11.2s5.3-6.8,5.3-6.8s4.1,4.4,2.6,9.6C71.6,178.6,66.7,181.8,66.7,181.8z"/>
		<path class="st2" d="M77.1,189.8c0,0-4.5-6-3.6-10.7s3.8-7.7,3.8-7.7s4.9,3.5,4.4,8.9C81.3,185.6,77.1,189.8,77.1,189.8z"/>
		<path class="st2" d="M58.7,169.1c0,0-7.2,2.1-11.3-0.4s-5.9-6.3-5.9-6.3s5-3.3,9.9-1C56.2,163.7,58.7,169.1,58.7,169.1z"/>
		<path class="st2" d="M63.4,180.1c0,0-7.6,1.5-12.1-1s-6.6-6-6.6-6s5.1-2.7,10.5-0.4C60.5,175.1,63.4,180.1,63.4,180.1z"/>
		<path class="st2" d="M74.1,188.2c0,0-7.1,3-12,1.5c-4.9-1.5-7.7-4.5-7.7-4.5s4.5-3.7,10.2-2.5S74.1,188.2,74.1,188.2z"/>
		<path class="st2" d="M85.3,194.7c0,0-6.6,4-11.6,3.3s-8.3-3.3-8.3-3.3s3.9-4.4,9.7-4C80.9,191.1,85.3,194.7,85.3,194.7z"/>
		<path class="st2" d="M100.7,199.3c0,0-5.8,5.1-10.9,5.2c-5.1,0.1-8.7-1.9-8.7-1.9s3.1-5,8.9-5.6
			C95.7,196.4,100.7,199.3,100.7,199.3z"/>
		<path class="st2" d="M91.9,195.7c0,0-5.9-5-6.8-10c-0.9-5,0.5-8.9,0.5-8.9s5.4,2.3,6.9,7.9C94,190.4,91.9,195.7,91.9,195.7z"/>
		<path class="st2" d="M112.1,199.4c0,0-7.6-1.3-11-5.1c-3.3-3.9-4.1-7.9-4.1-7.9s5.8-0.8,10,3.3S112.1,199.4,112.1,199.4z"/>
		<path class="st2" d="M115.4,202.9c0,0-5.4,5.5-10.5,6c-5.1,0.5-8.8-1.2-8.8-1.2s2.7-5.2,8.4-6.2S115.4,202.9,115.4,202.9z"/>
		<path class="st2" d="M147.6,205.9c0,0-7,3.4-11.9,2.1c-5-1.2-7.9-4.1-7.9-4.1s4.3-4,10-3C143.5,201.8,147.6,205.9,147.6,205.9z"/>
		<path class="st2" d="M145.5,187.7c0,0-2.4,7.3-6.7,10.1c-4.3,2.7-8.4,2.9-8.4,2.9s0.1-5.8,4.7-9.4S145.5,187.7,145.5,187.7z"/>
		<path class="st2" d="M158.5,177.5c0,0,1.3,7.6-1.3,12c-2.6,4.4-6.2,6.5-6.2,6.5s-2.6-5.2-0.1-10.5
			C153.4,180.2,158.5,177.5,158.5,177.5z"/>
		<path class="st2" d="M162.7,201.3c0,0-6.7,3.9-11.7,3c-5.1-0.9-8.2-3.5-8.2-3.5s4-4.3,9.8-3.8S162.7,201.3,162.7,201.3z"/>
		<path class="st2" d="M177.5,193.5c0,0-6.1,4.7-11.3,4.5s-8.6-2.4-8.6-2.4s3.4-4.7,9.2-5C172.7,190.3,177.5,193.5,177.5,193.5z"/>
		<path class="st2" d="M166,170.7c0,0,4,6,3.1,10.5c-0.9,4.5-3.7,7.4-3.7,7.4s-4.5-3.5-3.9-8.8S166,170.7,166,170.7z"/>
		<path class="st2" d="M172.4,164.3c0,0,5.7,4.5,6.1,9.1c0.5,4.6-1.3,8.2-1.3,8.2s-5.3-2-6.4-7.2
			C169.8,169.3,172.4,164.3,172.4,164.3z"/>
		<path class="st2" d="M175.6,151.6c0,0,7.3,3.5,8.1,8.3c0.8,4.8-1.3,9.1-1.3,9.1s-6.8-0.9-8.3-6.2
			C172.5,157.5,175.6,151.6,175.6,151.6z"/>
		<path class="st2" d="M174.6,141.4c0,0,7,2.2,9.4,6.3c2.5,4.1,2.5,8.1,2.5,8.1s-5.6,0-8.8-4.4C174.5,146.9,174.6,141.4,174.6,141.4
			z"/>
		<path class="st2" d="M165.8,129.2c0,0,7.3-0.1,10.9,3.1c3.6,3.2,4.8,6.9,4.8,6.9s-5.3,1.7-9.7-1.5
			C167.4,134.5,165.8,129.2,165.8,129.2z"/>
		<path class="st2" d="M163.6,115c0,0,7.5,0.9,10.4,4.8c2.8,3.9,3.1,8.1,3.1,8.1s-6,1.2-9.6-2.9S163.6,115,163.6,115z"/>
		<path class="st2" d="M184.1,117.9c0,0,5.2,5.5,4.9,10.3c-0.3,4.8-2.9,8.2-2.9,8.2s-5.3-2.9-5.5-8.4
			C180.4,122.6,184.1,117.9,184.1,117.9z"/>
		<path class="st2" d="M192.4,130.4c0,0,3.8,6.5,2.4,11.2s-4.7,7.3-4.7,7.3s-4.5-4.1-3.5-9.4C187.7,134.1,192.4,130.4,192.4,130.4z"
			/>
		<path class="st2" d="M200.1,146.5c0,0-0.2,7.6-3.8,10.8c-3.6,3.2-7.8,3.8-7.8,3.8s-1.7-5.8,2-9.8
			C194.1,147.2,200.1,146.5,200.1,146.5z"/>
		<path class="st2" d="M200.4,161.4c0,0-2.8,7.1-7.3,8.8c-4.5,1.8-8.7,0.9-8.7,0.9s0.4-6.1,5.3-8.6
			C194.6,160.1,200.4,161.4,200.4,161.4z"/>
		<path class="st2" d="M200,172.4c0,0-5.1,6.8-10.6,8.2c-5.5,1.4-9.8,0.3-9.8,0.3s2.2-5.9,8.3-8.1S200,172.4,200,172.4z"/>
		<path class="st2" d="M191.5,184.7c0,0-6.6,5.3-12.3,5.3c-5.7,0-9.6-2.1-9.6-2.1s3.6-5.2,10.1-5.8
			C186.1,181.5,191.5,184.7,191.5,184.7z"/>
		<circle class="st2" cx="121.7" cy="201.3" r="2.8"/>
	</g>
	<g>
		<path class="st3" d="M41,91.3c-1,0.5-1.8,0.9-2.7,1.4c-0.9,0.5-1.8,0.9-2.8,1.3c-1.3,0.6-2.6,1.3-3.9,1.9
			c-0.5,2.3-0.9,4.6-0.9,6.7c1.3-1.1,2.6-2.3,4-3.6c1-0.9,1.9-1.8,2.9-2.7l0.1-0.1c1.9-1.9,4-2.5,5.9-2.3c-0.6-1.1-1.1-2.2-1.3-3.4
			L41,91.3z"/>
		<path class="st3" d="M139.9,172.7C139.8,172.6,139.8,172.6,139.9,172.7l-0.4,0.3l-0.1,0l0.2-0.1L139.9,172.7z"/>
		<polygon class="st3" points="135.7,176.3 135.7,176.3 135.7,176.3 		"/>
		<g>
			<path class="st4" d="M81.9,95c3.1-4.6,5.5-9.1,7-14.5C85.3,82.5,81.5,90.4,81.9,95z"/>
			<path class="st4" d="M159.1,81.1c3.1-4.2,5.5-8.7,6.6-13.8C161.4,70.9,159.7,75.8,159.1,81.1z"/>
			<path class="st4" d="M186.9,62.7c-4.6,4.2-6,9.8-6.4,15.8c2.8-4.3,6.2-8.2,7.3-13.4c0.2-0.7-0.1-1.5-0.2-2.3
				C187.4,62.8,187.1,62.7,186.9,62.7z"/>
			<path class="st4" d="M132.2,138.9c-4.3,3-6.8,7.2-9.2,11.7C127.3,150.3,133,143.5,132.2,138.9z"/>
			<path class="st4" d="M159.3,131.2c-1.7,0.2-3.2,1-4.4,2.5c-0.7-1-1.7-2-3.3-2.7c-2.5-1.2-5.9-0.7-8.1,1c-1.5,1.1-2.5,2.5-3.3,3.6
				l-0.2,0.3c-0.1,0.2-0.3,0.4-0.4,0.5c-0.5-1-1.1-2-1.8-2.8c-2-2.1-4.3-3.4-6.7-3.7c2.3-4,2-9.4-0.7-14.2
				c-2.6-4.6-6.9-7.5-11.4-7.6l-1,0c-2-0.1-4.2-0.1-6.6,0.2c-11.1,1.9-21.2,7.3-30,16.1c-2,2-3.7,4.7-5.1,8
				c-2.6,6.1-0.2,12.3,6,15.4c0.9,0.4,1.7,0.7,2.6,0.9c-0.4,1.6-0.7,3.3-0.9,5c-0.4,3.5,0.8,6.9,3.3,9.5c2.4,2.5,5.8,3.8,9.1,3.5
				c1.5-0.1,2.9-0.8,3.9-2c0.1-0.1,0.2-0.2,0.2-0.3c2.9,3.4,6,5.9,9.4,7.8c1.9,1.1,3.9,1.6,6,1.6c3.8,0,7.4-1.8,9.8-5.3
				c0.3-0.5,0.6-1,0.8-1.6c2-0.3,3.9-1,5.7-2.3c1.4-1,2.9-2.1,4.3-3.5c0.8,1.1,1.9,2.1,3,2.8c-1,1.4-2,2.7-3,4
				c-0.2,0.2-0.3,0.4-0.4,0.5c-1.7-0.5-3.9-0.2-5.7,1.6c-1.4,1.4-2,3.5-1.4,5.5c0.4,1.4,1.1,2.7,2,3.9c0.1,0.1,0.1,0.1,0.1,0.2
				c0.1,0.1,0.2,0.2,0.3,0.3c2.2,2.4,5.6,3.8,8.9,3.8c0.3,0,0.7,0,1,0c0.3,0,0.6-0.1,0.9-0.1c1.7-0.3,3.3-1,4.7-2
				c2.7-2,5.2-4.5,7.1-7.3c6.8-9.6,10.3-20.5,13.1-30.1c0.7-2.3,2.1-7.1-2.4-11.2C164.3,132.7,162.3,130.9,159.3,131.2z
				 M112.9,167.5c-4.7-2.7-8.3-6.6-11.4-11c-1.3-1.9-2.5-3.9-3.9-6.1c-1.5,3.7-1.8,7.2-1.4,10.8c-3.7,0.3-6.9-3.2-6.5-6.9
				c0.5-4.4,1.9-8.6,4-12.5c2.4-4.3,5.1-8.5,7.8-12.6c0.6-0.9,1.5-1.7,2.3-2.4c1-0.8,2.1-1.2,2.8,0.4c0.1,0.2,0.3,0.5,0.5,0.5
				c2.2,0.6,1.6,2.2,0.9,3.4c-1.4,2.5-3,4.8-4.5,7.2c-0.7,1.1-1.4,2.3-1.9,3.6c8.6-5.6,16.1-12.1,21.3-21.6
				c-1.1-0.2-1.7-0.5-2.4-0.5c-12.8-0.2-23.5,5-32.6,13.6c-1.2,1.2-2.1,2.8-2.8,4.3c-1.2,2.5-1,2.9,1.7,3.5c0.6,0.2,1.3,0.3,2,0.5
				c-0.9,1.4-2.3,1.7-3.8,0.9c-3.4-1.7-4.8-4.8-3.3-8.3c0.9-2.2,2.2-4.5,3.9-6.2c7.5-7.5,16.3-12.8,26.9-14.6
				c2.1-0.4,4.3-0.2,6.5-0.1c5.7,0.2,10,8.8,7.4,13.5c-0.9,1.6-2,3.2-3.1,4.7c-2.6,3.6-5.7,6.8-9.3,9.4c-2.3,1.8-4.8,3.4-7.5,4.8
				c-1.4,0.7-3,0.8-4.9,1.3c3.5,4.7,6.9,9.4,11.3,13.1c2.5,2.1,5.3,3.8,8.5,5.1c-0.2,0.3-0.5,0.6-0.8,0.9
				C118.5,168.5,115.5,169,112.9,167.5z M139.4,172.9l0.4-0.3c0,0,0,0,0,0.1l-0.3,0.2L139.4,172.9L139.4,172.9z M162,142.9
				c-2.9,10-6.2,19.8-12.3,28.4c-1.6,2.3-3.7,4.4-5.9,6.1c-0.7,0.5-1.5,0.8-2.3,1c-0.2,0-0.3,0-0.5,0.1c-2,0.2-4-0.6-5.3-2
				c0,0-0.1-0.1-0.1-0.1c0,0-0.1-0.1-0.1-0.1c0,0-0.1-0.1-0.1-0.1c-0.4-0.5-0.8-1.1-1-1.8c0.1-0.1,0.2-0.2,0.3-0.2
				c2.9,1.1,4.8-0.5,6.3-2.5c2.9-3.8,5.7-7.8,8.5-11.8c-0.6-0.2-0.7-0.3-0.8-0.3c-3.9,2.3-8.5-0.3-9.2-5.2c-0.2-1.5,0-3,0-4.6
				c-1.8,2.1-3.4,4.1-5.2,6c-1.6,1.6-3.3,3.2-5.2,4.4c-1.3,0.9-2.6,1.3-3.9,1.4c-1.9,0.1-3.8-0.6-5.7-2.1c-1.1-0.9-2.1-1.9-2.7-3
				c-1-1.6-1.4-3.5-0.9-5.7c0.5-2.1,1.3-4.1,2.2-5.9c1.8-3.4,4.5-6.2,7.9-8.4c0.3-0.2,0.6-0.3,0.8-0.5c2.5-1.3,4.7-0.9,6.8,1.4
				c0.7,0.8,1.3,2.2,1.2,3.3c-0.7,5.6-4.4,8.9-9,11.4c-0.6,0.3-1.3,0.3-2,0.4c-1.9,0.1-2.8,1.5-2.5,4.2c0.2,1.8,1.2,2.7,3.1,1.9
				c2.3-0.9,4.8-1.9,6.6-3.5c2.8-2.5,5.3-5.4,7.7-8.3c2-2.4,3.7-5.2,5.6-7.7c0.7-1,1.5-2.1,2.4-2.8c0.6-0.4,1.7-0.6,2.3-0.3
				c1.1,0.5,1.7,1.3,0.9,2.9c-2,4.2-3.8,8.5-5.5,12.9c-0.6,1.6-0.5,3.5-0.7,5.3c0.3,0.1,0.5,0.2,0.8,0.4c1.3-1.1,2.7-2.1,3.8-3.3
				c3.9-4.7,7.4-9.6,9.7-15.3c0.2-0.5,0.4-1,0.7-1.5c0.6-0.9,1-1,2.1-0.1C163.1,139.2,162.6,140.9,162,142.9z"/>
			<path class="st4" d="M231.8,62.7c4.7-4.9,3.1-9.8,0.3-12.6c-0.7-0.7-1.5-1.3-2.1-1.9l-0.1-0.1c-4-3.3-9.3-3.2-13.3,0.2
				c-0.5,0.5-1,1-1.4,1.5c0,0-0.1,0-0.1-0.1c-4.5-2.2-9.6-1-12.3,2.7c0.5-1.6,1-3.3,1.5-4.9c0.9-2.9,0.3-6.7-4-8.8
				c-2.4-1.8-5.7-1.3-8.7,1.2c-1.4,1.2-2.1,2.8-2.5,3.8c-1.3,3.4-2.6,6.9-3.9,10.4l0,0c-3.1-0.1-6.1,1.1-8.6,3.6
				c-0.7,0.7-1.4,1.5-2.1,2.4c-0.8-0.6-1.6-1-2.2-1.3c-1.3-1.1-3.3-1.8-6.1-0.6c-3.7-1.4-7.1-0.6-10.3,2.3c-0.8,0.7-1.5,1.5-2.1,2.2
				c-1.9-1.7-4-2.5-6-2.3c-2.2,0.1-4,1.2-5.4,2.2c-0.1,0-0.2-0.1-0.3-0.1c-3-1-6.1,0.5-7.8,2.3c-1.1,1.2-1.8,2.5-2.3,3.5l-0.2,0.3
				c-0.2,0.3-0.4,0.7-0.6,1c-0.2-0.3-0.4-0.6-0.6-0.9c-1.7-2.3-4.1-3.7-6.6-4c-2.8-0.3-5.1,0.7-6.8,2.9c-1.3-0.8-2.8-1.3-4.4-1.4
				c-2.2-0.1-4.5,1-6,2.8c-1.2-0.5-2.5-0.8-3.9-0.6c-2.7,0.2-5,1.9-6.5,4.5c-0.5-0.3-1.1-0.6-1.5-0.7c0,0,0,0,0,0
				c-0.5-0.4-1-0.7-1.7-0.9c0.4-1,0.6-2.1,0.3-3.2l-0.1-0.7c-0.5-2.4-2.4-4.2-4.9-4.5c-3.8-0.4-7.2,0.4-10.2,1.2c-0.1,0-0.1,0-0.2,0
				c-0.5-0.6-1.2-1.1-1.9-1.6c-0.2-0.1-0.4-0.3-0.6-0.4c-1.1-1-2.6-1.5-4.1-1.3c-1.5,0.1-2.9,0.9-3.8,2c-0.2,0.2-0.3,0.4-0.5,0.6
				c-0.7,0.8-1.8,1.9-2.4,3.5c-0.5,1.1-1,1.6-2.1,1.9c-3.9,1.3-4.9,4.2-5.2,5.4c-0.1,0.4-0.2,0.9-0.1,1.6c-3.4-1.3-7.1-0.7-10.1,1.7
				c-1.5,1.2-2.6,2.6-3.5,4.1c-0.3-0.3-0.7-0.6-1-0.8c-2.1-1.2-4-1.7-5.8-1.8c0.1-0.3,0.2-0.7,0.3-1c2.4-0.7,4.9-1.4,7.3-2
				c1.4-0.3,2.9-0.6,4.5-0.9c0.8-0.1,1.6-0.3,2.3-0.4c1.5-0.3,2.9-1.2,3.7-2.6c0.8-1.3,1-3,0.6-4.5c0-0.1-0.1-0.2-0.1-0.3
				c-0.1-0.4-0.3-1-0.6-1.7c-2.9-6-8.8-5.2-10.8-5l-0.5,0.1c-7.6,0.9-15.2,3.3-22.3,7.1c-4.2,2.2-8,5.1-10.8,7.3
				c-2.5,2-3.8,4.9-4.4,7.1c-0.8,2.7-0.2,5.7,1.6,8.1c0.6,0.8,1.3,1.4,2.1,2c-1.8,2.6-1.9,6.5,0,8.9c0.9,1.2,2.3,2.6,4.2,3.2
				c0,0.5,0.1,0.9,0.1,1.4c0.5,5.2,3.6,9.3,8.7,11.5c2.6,1.1,4.8,1.6,6.8,1.6c4.5,0,7.6-2.3,9.2-4c1.6-1.7,3.1-3.4,4.6-5.1
				c2.1,1.8,5.2,3,7.9,3c0.7,0,1.4-0.1,2-0.2c2.2-0.6,4.3-1.8,6-3.6c1.6,1.1,3.5,1.9,5.8,2.3c0.5,0.1,1.1,0.1,1.5,0.1
				c4.6,0,7-3.6,7.8-4.8c0.7-1,1.2-1.9,1.8-2.9c1.2,0.6,2.6,1,4.1,1.2c3.3,0.4,6-1.1,7.9-4.5c1.5,0.8,3.3,1.4,5.5,1.1
				c1.1-0.2,2.6-0.7,4-1.8c0.9,0.5,1.8,1,2.9,1.3c3.8,1.2,6.1-1.4,7.6-3.8c0.8,0.5,1.6,1,2.4,1.4c2.4,1.1,4.7,0.4,6.5-1.1
				c1.7,1.5,3.9,2.5,6.5,2.8c0.7,0.1,1.3,0,1.8-0.1c0.1,0.4,0.2,0.9,0.4,1.3c0.1,0.3,0.2,0.5,0.3,0.8c0.1,0.3,0.3,0.6,0.4,0.9
				c1.1,2.2,2.8,3.8,5,4.6c1.6,0.6,3.3,0.8,5.1,0.6c2-0.3,3.7-1.6,4.4-3.4c0.4-1,0.6-2,0.5-3.1c-0.1-0.5-0.1-1.1-0.2-1.6
				c-0.3-1.8-0.6-3.5-0.6-5.1c3.5,0.1,6.8-1.6,9.4-5c0.3-0.4,0.7-0.9,1-1.3c1.7,1.5,4,2.5,6.5,2.7c0.3,0,0.5,0,0.8,0
				c2.9,0,5.3-1.5,7.1-4.6c1.5,0.8,3.4,1.4,5.5,1.1c0.8-0.1,1.7-0.4,2.6-0.9c1.9,1.4,4.1,1.8,5.1,2c3.3,0.7,6.1-0.5,8.5-3.7
				c1.5,1,3.3,1.6,5.1,1.6c3.5,0.1,6.8-1.6,9-4.6c1.7,1,3.6,1.8,5.8,1.7c3-0.1,5.2-1.7,6.8-3.1c2,1.4,4.6,2.4,6.8,2.4
				c0.6,0,1.2-0.1,1.7-0.2c5-1.3,8.7-4.8,10.3-9.9c0.8-2.7,1-6.3-1.8-9.9C231.3,63.1,231.6,62.9,231.8,62.7z M42.3,90.6
				c0.3,1.2,0.7,2.3,1.3,3.4c-1.9-0.2-4,0.3-5.9,2.3l-0.1,0.1c-1,0.9-1.9,1.8-2.9,2.7c-1.4,1.3-2.7,2.5-4,3.6c0-2.1,0.4-4.4,0.9-6.7
				c1.3-0.6,2.6-1.3,3.9-1.9c0.9-0.4,1.9-0.9,2.8-1.3c0.9-0.4,1.7-0.9,2.7-1.4L42.3,90.6z M40.6,104.5c-1.9,2.2-3.7,4.4-5.7,6.4
				c-2.8,2.9-6.2,2.8-9.8,1.2c-3.1-1.4-5.1-3.6-5.4-7c-0.2-2.6,0-5.2,0-8c-0.6,0.4-1,0.6-1.4,0.9c-1.8,1.3-2.7,1.3-4-0.4
				c-0.4-0.5-0.2-1.9,0.2-2.4c1.6-1.6,3.5-2.9,5.3-4.3c0.5-0.4,1.1-0.9,1.4-1.4c1.6-4.2,3.1-8.4,4.6-12.6
				c-5.2,0.7-12.2,7.8-10.7,11.2c-2.1,0.1-4.2-2.3-3.6-4.4c0.5-1.6,1.3-3.4,2.6-4.4c3.1-2.5,6.4-4.9,9.9-6.7
				c6.4-3.4,13.2-5.6,20.4-6.5c2.1-0.2,4.4-0.8,5.6,1.7c0.1,0.3,0.2,0.7,0.4,1.2c-2.5,0.5-4.8,0.8-7.1,1.4c-3.1,0.8-6.2,1.7-9.3,2.6
				c-0.5,0.2-1.2,0.6-1.3,1.1c-1.2,3.5-2.3,7.1-3.5,10.7c-0.1,0.5-0.3,0.9-0.5,1.6c3.7-0.8,7.1-3.4,11.2-1c-1.5,0.8-2.8,1.4-4,2
				c-2.7,1.3-5.3,2.6-8,3.9c-0.5,0.3-1.2,0.9-1.3,1.4c-1,4.5-2,9-0.9,13.6c1.2,5,2.4,4.9,5.8,2.6c3.6-2.5,6.6-5.7,9.9-8.6
				c0,0,0.1-0.1,0.1-0.1c0.6-0.6,1.2-1.4,2.7-0.2C43,101.6,41.8,103,40.6,104.5z M58.1,88.2c-0.4-0.6-0.8-1.2-1.1-1.8
				c-0.2-0.3-0.4-0.6-0.6-0.9c-2.2,0.9-4,3.5-3.6,5.7c0.2,1,1.1,2,1.9,2.7c0.1,0.1,0.1,0.1,0.2,0.2c1.9,1.6,3.6,3.2,3.1,6.1
				c-0.3,1.4-1,2.9-2.1,4.1c-1.1,1.3-2.5,2.3-3.9,2.6c-1.3,0.3-3.6-0.5-4.9-1.6c-0.4-0.3-0.7-0.7-0.9-1c-0.6-1.2,0.4-1.4,1.1-1.6
				c0.8-0.2,1.5-0.5,2.2-0.9c1.5-1,2.5-2.4,3.2-4.2c0.5-1.3,0.3-2.3-0.9-3c-0.3-0.2-0.6-0.4-0.9-0.7c-4.4-3.3-4.5-8.6-0.2-12.1
				c1.8-1.5,4.1-1.5,5.9,0c0.5,0.4,0.9,0.8,1.4,1.2c0.1,0.1,0.2,0.2,0.3,0.2C59.9,84.7,59.9,86.1,58.1,88.2z M148,83.5
				c-0.6,1.1-1.3,2.1-2.1,3.1c-2.4,3.1-5.1,3.6-8.7,1.6c5.7-4.5,7.8-11,10.2-17.4c-0.1-0.1-0.3-0.2-0.4-0.3c-1,1.1-2.3,2.1-3,3.3
				c-2.6,4.4-5.4,8.7-7.4,13.4c-1.8,4.3-1.3,9.1-0.5,13.7c0.1,0.4,0.1,0.8,0.2,1.3c0,0.1-0.1,0.2-0.1,0.3c-0.9,0.1-1.6,0-2.3-0.2
				c-0.9-0.3-1.6-1-2.1-1.9c-0.1-0.1-0.1-0.3-0.2-0.4c-0.1-0.1-0.1-0.3-0.1-0.4c-1.2-3.6-0.9-7.3-0.5-11c0.1-0.6,0.1-1.2-0.1-2
				c-0.7,1.2-1.5,2.4-2.2,3.7c-0.4,0.7-0.7,1.5-1.3,2c-0.9,0.9-2,2.3-2.9,2.2c-1.8-0.2-3.7-1-4.4-3.1c-0.9-3-0.6-6-0.1-9
				c0.1-0.5,0.2-0.9,0.1-1.5c-0.8,1.6-1.5,3.2-2.3,4.8c-0.9,1.8-1.6,3.8-2.6,5.5c-0.5,0.9-1.8,2.3-2.1,2.2c-1.3-0.6-2.5-1.5-3.3-2.6
				c-0.6-0.7-0.5-2-0.6-3c0-1.8,0.2-3.6,0-5.5c-1.1,2.3-2.2,4.6-3.2,7c-0.5,1.1-0.9,2.3-1.5,3.4c-0.6,1.1-1.7,3-2.1,2.9
				c-1.5-0.5-2.8-1.5-4.1-2.5c-0.5-0.4-0.7-1.2-1.2-2c-0.6,1-1.2,1.8-1.6,2.6c-1.7,3.2-3.8,2.7-6.4,0.2c-0.8-0.8-1.1-2-1.8-3.2
				c-1.1,2-2,3.9-3.2,5.7c-0.7,1.2-1.3,3.1-3,2.8c-2.2-0.3-4.1-1.3-5-3.6c-0.2-0.5-0.3-1.1-0.6-2c-0.9,1.6-1.7,2.9-2.4,4.3
				c-1.1,1.8-2,3.7-3.2,5.4c-0.9,1.3-1.9,2.6-3.9,2.3c-1.4-0.2-2.6-0.6-3.6-1.4c-0.7-0.5-1.2-1.3-1.6-2.3c-1-2.8-1-5.6-0.2-8.4
				c1-3.9,2.3-7.7,3.4-11.6c0.3-0.9,0.6-1.9,0.9-2.8c0.1-0.5,0.3-0.9,0.5-1.4c-0.6-0.2-1.4-0.2-1.8-0.5c-1.4-1.3-1.2-2.5,0.6-3.1
				c2.7-0.9,4.4-2.5,5.5-5.1c0.4-1,1.4-1.8,2.1-2.7c1.5,1.2,3.4,1.7,2.7,4.2c4.6-0.6,8.8-2.5,13.2-2c0,0.2,0.1,0.5,0.1,0.7
				c-0.7,0.2-1.5,0.4-2.2,0.6c-3.5,1.1-7.1,2.1-10.6,3.3c-0.8,0.3-1.7,1-2,1.7c-2.3,6.6-4.5,13.2-6.5,19.9c-0.7,2.3-0.7,4.7-1,7.1
				c-0.1,0.6,0.1,1.3,0.2,2.6c1.3-1.2,2.4-1.8,2.9-2.8c2.8-4.9,5.6-9.9,8.3-14.9c1.1-2,1.8-4.2,3-6.1c0.7-1.2,1.9-2.3,3.1-3.2
				c1.4-1.1,3-1.3,4.6-0.1c0.5,0.4,1.1,0.5,1.4,0.7c0.8-0.6,2-1.5,2.1-1.4c1,1.1,3.5,0.8,3,3.3c-0.6,3.6-1.1,7.3-1.7,11
				c-0.1,0.6-0.1,1.2-0.2,2.2c0.7-0.5,1.1-0.8,1.3-1.1c1.9-2.4,3.6-4.8,4.3-7.9c0.6-2.7,1.6-5.3,2.7-7.9c1.3-2.8,3.6-2.9,5.4-0.4
				c0.3,0.4,0.2,1.1,0.1,1.6c-1,3.6-2.2,7.2-3.2,10.8c-0.2,0.6-0.2,1.3-0.3,1.9c0.2,0,0.3,0.1,0.5,0.1c0.7-1.7,1.5-3.4,2.2-5.2
				c1.3-3.1,2.4-6.2,3.7-9.3c0.5-1.1,1-2.1,1.7-3.1c0.3-0.4,1-0.9,1.5-0.8c2.2,0.1,4.4,2.9,3.9,5.1c-0.7,3.5-1.7,6.9-2.5,10.4
				c-0.1,0.2-0.1,0.5,0.1,0.8c0.4-0.8,0.8-1.5,1.2-2.3c1.5-3.8,3-7.6,4.6-11.3c0.1-0.3,0.2-0.6,0.4-0.9c0.8-1.4,1.1-3.6,3.3-3.4
				c2.2,0.2,4.3,3.5,3.8,5.8c-0.8,3.9-1.7,7.7-2.5,11.6c-0.3,1.3-0.4,2.5-0.7,4.4c0.8-0.6,1.2-0.9,1.4-1.2c1.2-1.7,2.4-3.4,3.5-5.3
				c2.6-4.7,5.2-9.6,7.7-14.3c0.5-0.9,1-1.9,1.7-2.6c0.4-0.5,1.4-1,1.9-0.8c1,0.3,2.1,0.9,1.4,2.4c-0.3,0.7-0.4,1.5-0.6,2.2
				c0.1,0,0.2,0.1,0.3,0.1c0.6-0.8,1.1-1.6,1.7-2.4c0.6-0.8,1-1.8,1.7-2.4c1-0.8,2.2-1.8,3.3-1.8c0.8-0.1,2,0.8,2.8,1.8
				c0.6,0.7,1.1,1.6,1.1,2.2c0,1.5,0,3.1-0.3,4.6C150.9,77.8,149.7,80.7,148,83.5z M211.7,75.1c-0.4,0.5-0.7,0.9-1.1,1.3
				c-3,3.3-5.7,2.4-9.2-1.5c-0.4-0.4-0.6-1-1-1.6c-1.1,1.9-2.1,3.8-3.2,5.6c-2.4,3.7-6.7,3.4-8.8-0.5c-0.5-0.9-0.8-1.8-1.3-3
				c-0.7,1.2-1.3,2.2-1.9,3.2c-0.6,1-1.1,1.9-1.8,2.8c-0.8,1.1-1.6,2.6-3.3,2.2c-2.1-0.5-4.1-1.1-4.6-3.6c-0.2-0.9-0.4-1.8-0.7-3
				c-0.8,1.2-1.4,2.2-2,3.2c-1.7,3.2-3.7,2.8-6.4,0.3c-0.8-0.8-1.2-2-1.8-3.2c-1.1,2-2.2,4-3.3,6c-0.7,1.2-1.2,2.7-3,2.6
				c-1.7-0.1-3.1-0.9-4-2.1c-0.4-0.5-0.7-1.1-0.9-1.8c-0.2-0.8-0.2-1.6-0.1-2.4c0.5-4.2,1.8-8.1,3.8-11.7c0-0.1,0.1-0.1,0.1-0.2
				c0.6-1.1,1.4-2,2.3-2.8c2-1.8,3.5-1.9,5.8-0.6c0.5,0.3,1,0.4,1.2,0.5c0.9-0.6,2.1-1.4,2.2-1.3c0.9,1.1,3.4,0.8,3,3.1
				c-0.5,2.9-0.9,5.7-1.4,8.6c-0.2,1.4-0.3,2.9-0.3,4.4c2.5-2.1,4.2-4.8,5.3-7.8c0.6-1.7,1-3.6,1.8-5.2c0.9-1.7,2-3.3,3.3-4.6
				c2.3-2.3,5.1-2.7,8-0.5c0.2-0.6,0.4-1.1,0.6-1.5c1.7-4.6,3.4-9.3,5.2-13.9c0.2-0.6,0.5-1.2,0.9-1.6c0.5-0.4,1.6-1,1.8-0.9
				c0.7,0.7,2.5,0.6,1.9,2.6c-1.9,6.1-3.6,12.2-5.2,18.3c-1.2,4.6-2.4,9.2-1.3,14.1c0.1,0.3,0.1,0.6,0.2,0.9
				c0.1,0.2,0.2,0.3,0.6,0.8c1.1-1.1,2.4-2.1,3-3.3c1.5-3.1,2.7-6.3,4.1-9.5c0.9-2.1,1.8-4.3,3-6.3c0.6-1,1.7-1.4,3-0.6
				c1.2,0.7,1.3,1.4,0.8,2.6c-1.3,3.3-2.4,6.6-2.1,10.2c0.1,0.7,0.2,1.4,0.4,2.3c3.6-1.8,6.6-7.8,7.2-12.8c0.2-1.5,0.1-2.9-0.2-4.1
				c-0.2,0.1-0.3,0.2-0.5,0.3c-1,0.6-2,1.2-2.9,1.8c-2.3-1.3-2.9-2.9-1.9-4.6c1.1-1.8,3.4-2.1,5.3-1.3c0.1,0,0.1,0,0.2,0.1
				c3.8,1.8,4.2,4.9,3.7,8.5c-0.2,1.4-0.5,2.7-0.9,4c-0.1,0.3-0.2,0.6-0.3,0.9C214.4,70.7,213.2,73,211.7,75.1z M227.8,58.8
				c-0.6-1-1.1-1.8-1.7-2.8c-1.9,0.8-3,2.5-3.5,4.5c-0.5,1.8,0.3,3.1,1.8,4.1c2.4,1.7,4.3,3.7,3.3,7c-1,3.1-3,5.3-6.3,6.2
				c-0.9,0.2-2.5-0.4-3.8-1.2c-0.7-0.5-1.3-1-1.5-1.5c-0.5-1.3,0.6-1.2,1.3-1.5c0.9-0.3,1.6-0.7,2.3-1.1c1.4-1,2.3-2.4,2.9-4.2
				c0.4-1.1,0.2-2.1-0.8-2.8c0,0,0,0,0,0c-0.4-0.3-0.8-0.6-1.1-0.9c-3.7-3-4.1-7.8-1-11.2c0.2-0.2,0.5-0.5,0.7-0.7
				c1.9-1.6,4.2-1.7,6.1-0.1c0.6,0.5,1.3,1,1.8,1.6C229.6,55.5,229.5,56.9,227.8,58.8z"/>
		</g>
		<g>
			<path class="st5" d="M84.2,96.3c1.1-1.8,2.1-3.8,3.2-5.7c0.6,1.2,1,2.4,1.8,3.2c2.5,2.5,4.6,3,6.4-0.2c0.5-0.9,1-1.7,1.6-2.6
				c0.4,0.8,0.6,1.6,1.2,2c1.3,1,2.6,2,4.1,2.5c0.4,0.1,1.5-1.8,2.1-2.9c0.6-1.1,1-2.3,1.5-3.4c1.1-2.3,2.1-4.7,3.2-7
				c0.2,1.9,0,3.7,0,5.5c0,1,0,2.3,0.6,3c0.8,1.1,2.1,2.1,3.3,2.6c0.3,0.1,1.6-1.3,2.1-2.2c1-1.8,1.7-3.7,2.6-5.5
				c0.7-1.6,1.5-3.2,2.3-4.8c0.1,0.6,0,1.1-0.1,1.5c-0.6,3-0.8,6,0.1,9c0.7,2.2,2.6,3,4.4,3.1c0.9,0.1,2-1.3,2.9-2.2
				c0.6-0.6,0.9-1.3,1.3-2c0.7-1.2,1.5-2.4,2.2-3.7c0.3,0.8,0.2,1.4,0.1,2c-0.4,3.7-0.7,7.4,0.5,11c0,0.1,0.1,0.3,0.1,0.4
				c0.1,0.1,0.1,0.3,0.2,0.4c0.5,0.9,1.2,1.6,2.1,1.9c0.7,0.3,1.5,0.3,2.3,0.2c0-0.1,0.1-0.2,0.1-0.3c0-0.4-0.1-0.9-0.2-1.3
				c-0.8-4.6-1.3-9.4,0.5-13.7c2-4.7,4.8-9,7.4-13.4c0.7-1.3,2-2.2,3-3.3c0.1,0.1,0.3,0.2,0.4,0.3c-2.4,6.4-4.5,12.9-10.2,17.4
				c3.6,2,6.3,1.5,8.7-1.6c0.8-1,1.5-2,2.1-3.1c1.6-2.7,2.8-5.7,3.5-8.9c0.3-1.5,0.4-3.1,0.3-4.6c0-0.6-0.5-1.4-1.1-2.2
				c-0.8-1-2-1.8-2.8-1.8c-1.2,0.1-2.4,1-3.3,1.8c-0.7,0.6-1.2,1.6-1.7,2.4c-0.6,0.8-1.1,1.6-1.7,2.4c-0.1,0-0.2-0.1-0.3-0.1
				c0.2-0.8,0.3-1.5,0.6-2.2c0.7-1.5-0.4-2.1-1.4-2.4c-0.5-0.2-1.4,0.3-1.9,0.8c-0.7,0.8-1.2,1.7-1.7,2.6c-2.6,4.8-5.1,9.6-7.7,14.3
				c-1,1.8-2.3,3.5-3.5,5.3c-0.2,0.3-0.7,0.6-1.4,1.2c0.3-1.8,0.4-3.1,0.7-4.4c0.8-3.9,1.8-7.7,2.5-11.6c0.5-2.3-1.6-5.6-3.8-5.8
				c-2.2-0.2-2.5,2-3.3,3.4c-0.2,0.3-0.2,0.6-0.4,0.9c-1.5,3.8-3,7.6-4.6,11.3c-0.3,0.8-0.8,1.5-1.2,2.3c-0.2-0.4-0.2-0.6-0.1-0.8
				c0.9-3.5,1.8-6.9,2.5-10.4c0.5-2.2-1.7-5-3.9-5.1c-0.5,0-1.2,0.4-1.5,0.8c-0.7,0.9-1.3,2-1.7,3.1c-1.3,3.1-2.5,6.2-3.7,9.3
				c-0.7,1.7-1.5,3.5-2.2,5.2c-0.2,0-0.3-0.1-0.5-0.1c0.1-0.6,0.1-1.3,0.3-1.9c1.1-3.6,2.2-7.2,3.2-10.8c0.1-0.5,0.2-1.2-0.1-1.6
				c-1.8-2.5-4.1-2.4-5.4,0.4c-1.2,2.5-2.1,5.2-2.7,7.9c-0.7,3.1-2.4,5.5-4.3,7.9c-0.3,0.3-0.7,0.6-1.3,1.1c0.1-1,0.1-1.7,0.2-2.2
				c0.5-3.7,1-7.3,1.7-11c0.4-2.5-2.1-2.2-3-3.3c-0.1-0.1-1.2,0.8-2.1,1.4c-0.3-0.1-0.9-0.3-1.4-0.7c-1.6-1.2-3.2-1-4.6,0.1
				c-1.2,0.9-2.3,1.9-3.1,3.2c-1.2,1.9-1.9,4.1-3,6.1c-2.7,5-5.4,10-8.3,14.9c-0.6,1-1.7,1.6-2.9,2.8c-0.1-1.3-0.3-2-0.2-2.6
				c0.3-2.4,0.3-4.9,1-7.1c2-6.7,4.2-13.3,6.5-19.9c0.2-0.7,1.2-1.4,2-1.7c3.5-1.2,7.1-2.2,10.6-3.3c0.7-0.2,1.5-0.4,2.2-0.6
				c0-0.2-0.1-0.5-0.1-0.7c-4.5-0.5-8.7,1.5-13.2,2c0.7-2.4-1.2-2.9-2.7-4.2c-0.8,0.9-1.7,1.7-2.1,2.7c-1.1,2.6-2.8,4.2-5.5,5.1
				c-1.8,0.6-2,1.8-0.6,3.1c0.4,0.4,1.1,0.4,1.8,0.5c-0.2,0.5-0.3,1-0.5,1.4c-0.3,0.9-0.6,1.9-0.9,2.8c-1.2,3.9-2.4,7.7-3.4,11.6
				c-0.7,2.8-0.8,5.6,0.2,8.4c0.4,1,0.9,1.7,1.6,2.3c1,0.8,2.2,1.2,3.6,1.4c2,0.3,3-1,3.9-2.3c1.2-1.7,2.2-3.6,3.2-5.4
				c0.8-1.3,1.5-2.7,2.4-4.3c0.3,0.9,0.4,1.4,0.6,2c0.8,2.3,2.8,3.3,5,3.6C83,99.3,83.5,97.5,84.2,96.3z M89,80.5
				c-1.5,5.3-3.9,9.8-7,14.5C81.5,90.4,85.3,82.5,89,80.5z"/>
			<path class="st5" d="M101.5,147.4c1.9-0.5,3.5-0.6,4.9-1.3c2.7-1.4,5.2-3,7.5-4.8c3.5-2.7,6.6-5.8,9.3-9.4c1.1-1.5,2.1-3,3.1-4.7
				c2.7-4.7-1.7-13.4-7.4-13.5c-2.2-0.1-4.4-0.2-6.5,0.1c-10.6,1.8-19.4,7-26.9,14.6c-1.7,1.7-2.9,4-3.9,6.2
				c-1.5,3.5-0.1,6.6,3.3,8.3c1.5,0.8,2.9,0.5,3.8-0.9c-0.7-0.2-1.3-0.4-2-0.5c-2.7-0.7-2.9-1-1.7-3.5c0.8-1.5,1.6-3.2,2.8-4.3
				c9.1-8.6,19.8-13.8,32.6-13.6c0.7,0,1.3,0.3,2.4,0.5c-5.2,9.5-12.7,16-21.3,21.6c0.5-1.3,1.1-2.5,1.9-3.6
				c1.5-2.4,3.1-4.7,4.5-7.2c0.7-1.2,1.3-2.7-0.9-3.4c-0.2-0.1-0.4-0.3-0.5-0.5c-0.7-1.6-1.8-1.3-2.8-0.4c-0.9,0.7-1.7,1.4-2.3,2.4
				c-2.7,4.2-5.4,8.3-7.8,12.6c-2.1,3.8-3.5,8-4,12.5c-0.4,3.7,2.8,7.2,6.5,6.9c-0.4-3.6-0.1-7.2,1.4-10.8c1.4,2.2,2.6,4.2,3.9,6.1
				c3.1,4.4,6.6,8.3,11.4,11c2.6,1.5,5.6,1,7.7-1.1c0.3-0.3,0.5-0.6,0.8-0.9c-3.3-1.2-6.1-3-8.5-5.1
				C108.4,156.8,105,152.1,101.5,147.4z"/>
			<path class="st5" d="M212.6,54.8c-0.1,0-0.1-0.1-0.2-0.1c-2-0.9-4.2-0.5-5.3,1.3c-1.1,1.7-0.4,3.3,1.9,4.6c1-0.6,1.9-1.2,2.9-1.8
				c0.2-0.1,0.3-0.2,0.5-0.3c0.3,1.2,0.4,2.6,0.2,4.1c-0.6,5-3.6,11-7.2,12.8c-0.1-0.9-0.3-1.6-0.4-2.3c-0.3-3.6,0.8-7,2.1-10.2
				c0.5-1.1,0.4-1.8-0.8-2.6c-1.4-0.8-2.4-0.4-3,0.6c-1.2,2-2,4.2-3,6.3c-1.4,3.2-2.5,6.4-4.1,9.5c-0.6,1.3-2,2.2-3,3.3
				c-0.4-0.5-0.6-0.6-0.6-0.8c-0.1-0.3-0.1-0.6-0.2-0.9c-1-4.8,0.1-9.5,1.3-14.1c1.6-6.1,3.4-12.3,5.2-18.3c0.6-2-1.2-1.9-1.9-2.6
				c-0.2-0.2-1.3,0.4-1.8,0.9c-0.4,0.4-0.7,1-0.9,1.6c-1.7,4.6-3.5,9.2-5.2,13.9c-0.2,0.4-0.3,0.9-0.6,1.5c-3-2.2-5.7-1.8-8,0.5
				c-1.3,1.3-2.4,3-3.3,4.6c-0.8,1.6-1.2,3.5-1.8,5.2c-1.1,3-2.8,5.6-5.3,7.8c-0.1-1.5,0.1-3,0.3-4.4c0.4-2.9,0.9-5.7,1.4-8.6
				c0.4-2.4-2-2.1-3-3.1c-0.1-0.1-1.2,0.8-2.2,1.3c-0.2-0.1-0.7-0.2-1.2-0.5c-2.3-1.2-3.9-1.1-5.8,0.6c-0.9,0.8-1.7,1.8-2.3,2.8
				c0,0.1-0.1,0.1-0.1,0.2c-2,3.6-3.4,7.5-3.8,11.7c-0.1,0.8,0,1.6,0.1,2.4c0.1,0.7,0.5,1.3,0.9,1.8c0.9,1.2,2.3,1.9,4,2.1
				c1.8,0.2,2.3-1.4,3-2.6c1.2-1.9,2.2-3.9,3.3-6c0.6,1.2,1,2.4,1.8,3.2c2.6,2.5,4.6,2.9,6.4-0.3c0.5-1,1.2-2,2-3.2
				c0.3,1.2,0.5,2.1,0.7,3c0.5,2.5,2.6,3.2,4.6,3.6c1.7,0.4,2.5-1.1,3.3-2.2c0.6-0.9,1.2-1.9,1.8-2.8c0.6-1,1.2-2,1.9-3.2
				c0.5,1.2,0.8,2.2,1.3,3c2.1,3.9,6.4,4.2,8.8,0.5c1.1-1.8,2.1-3.6,3.2-5.6c0.4,0.6,0.7,1.2,1,1.6c3.5,4,6.2,4.8,9.2,1.5
				c0.4-0.4,0.7-0.8,1.1-1.3c1.6-2.1,2.7-4.4,3.5-6.9c0.1-0.3,0.2-0.6,0.3-0.9c0.4-1.3,0.7-2.6,0.9-4
				C216.9,59.7,216.4,56.7,212.6,54.8z M159.1,81.1c0.6-5.3,2.2-10.2,6.6-13.8C164.7,72.4,162.3,76.9,159.1,81.1z M187.8,65.1
				c-1.1,5.1-4.5,9.1-7.3,13.4c0.5-6,1.8-11.6,6.4-15.8c0.2,0,0.5,0.1,0.7,0.1C187.7,63.6,187.9,64.4,187.8,65.1z"/>
			<path class="st5" d="M159.1,137.5c-0.3,0.5-0.5,1-0.7,1.5c-2.3,5.7-5.8,10.6-9.7,15.3c-1.1,1.3-2.5,2.2-3.8,3.3
				c-0.3-0.1-0.5-0.2-0.8-0.4c0.2-1.8,0.1-3.7,0.7-5.3c1.6-4.4,3.5-8.7,5.5-12.9c0.8-1.6,0.2-2.4-0.9-2.9c-0.6-0.3-1.8-0.1-2.3,0.3
				c-1,0.7-1.7,1.8-2.4,2.8c-1.9,2.6-3.6,5.3-5.6,7.7c-2.4,2.9-4.8,5.8-7.7,8.3c-1.8,1.6-4.3,2.6-6.6,3.5c-1.9,0.7-3-0.1-3.1-1.9
				c-0.3-2.7,0.6-4.1,2.5-4.2c0.7,0,1.4-0.1,2-0.4c4.7-2.5,8.3-5.9,9-11.4c0.1-1-0.4-2.5-1.2-3.3c-2.1-2.2-4.2-2.7-6.8-1.4
				c-0.3,0.1-0.6,0.3-0.8,0.5c-3.5,2.2-6.1,5-7.9,8.4c-1,1.8-1.7,3.8-2.2,5.9c-0.5,2.2-0.1,4.1,0.9,5.7c0.7,1.1,1.6,2.1,2.7,3
				c1.9,1.5,3.8,2.2,5.7,2.1c1.3-0.1,2.6-0.5,3.9-1.4c1.9-1.3,3.6-2.8,5.2-4.4c1.8-1.9,3.5-4,5.2-6c0,1.6-0.2,3.1,0,4.6
				c0.7,4.9,5.3,7.4,9.2,5.2c0.1,0,0.2,0.1,0.8,0.3c-2.9,4-5.6,8-8.5,11.8c-1.5,2-3.5,3.6-6.3,2.5c-0.1,0-0.2,0.1-0.3,0.2
				c0.2,0.7,0.5,1.3,1,1.8c0,0,0.1,0.1,0.1,0.1c0,0,0,0.1,0.1,0.1c0,0,0,0.1,0.1,0.1c1.3,1.4,3.4,2.2,5.3,2c0.2,0,0.3,0,0.5-0.1
				c0.8-0.1,1.6-0.5,2.3-1c2.2-1.7,4.3-3.8,5.9-6.1c6.1-8.6,9.4-18.4,12.3-28.4c0.6-2,1.1-3.7-0.8-5.5
				C160.1,136.5,159.8,136.6,159.1,137.5z M132.2,138.9c0.7,4.6-4.9,11.4-9.2,11.7C125.5,146,127.9,141.8,132.2,138.9z"/>
			<path class="st5" d="M41.5,100.3c0,0-0.1,0.1-0.1,0.1c-3.3,2.9-6.3,6.1-9.9,8.6c-3.4,2.4-4.6,2.4-5.8-2.6
				c-1.1-4.6-0.1-9.1,0.9-13.6c0.1-0.5,0.8-1.1,1.3-1.4c2.6-1.4,5.3-2.6,8-3.9c1.2-0.6,2.5-1.3,4-2c-4.2-2.4-7.6,0.1-11.2,1
				c0.2-0.7,0.3-1.2,0.5-1.6c1.1-3.6,2.3-7.2,3.5-10.7c0.2-0.5,0.8-0.9,1.3-1.1c3.1-0.9,6.1-1.8,9.3-2.6c2.3-0.6,4.7-0.9,7.1-1.4
				c-0.2-0.5-0.2-0.9-0.4-1.2c-1.2-2.6-3.6-2-5.6-1.7c-7.2,0.8-14,3.1-20.4,6.5c-3.5,1.9-6.8,4.3-9.9,6.7c-1.2,1-2.1,2.8-2.6,4.4
				c-0.7,2.2,1.4,4.5,3.6,4.4c-1.4-3.4,5.5-10.5,10.7-11.2c-1.5,4.1-3,8.4-4.6,12.6c-0.2,0.6-0.8,1-1.4,1.4
				c-1.8,1.4-3.7,2.7-5.3,4.3c-0.5,0.4-0.6,1.9-0.2,2.4c1.3,1.7,2.2,1.7,4,0.4c0.4-0.3,0.9-0.6,1.4-0.9c0,2.8-0.2,5.4,0,8
				c0.3,3.4,2.3,5.6,5.4,7c3.5,1.5,7,1.7,9.8-1.2c2-2,3.8-4.2,5.7-6.4c1.2-1.4,2.4-2.9,3.7-4.3C42.7,98.9,42.2,99.7,41.5,100.3z"/>
			<path class="st5" d="M58.1,83c-0.5-0.4-0.9-0.8-1.4-1.2c-1.8-1.5-4.1-1.5-5.9,0c-4.3,3.5-4.2,8.8,0.2,12.1
				c0.3,0.2,0.6,0.5,0.9,0.7c1.2,0.8,1.4,1.8,0.9,3c-0.7,1.8-1.7,3.3-3.2,4.2c-0.6,0.4-1.3,0.7-2.2,0.9c-0.8,0.2-1.7,0.4-1.1,1.6
				c0.2,0.3,0.5,0.7,0.9,1c1.3,1.1,3.6,1.9,4.9,1.6c1.4-0.4,2.8-1.4,3.9-2.6c1.1-1.2,1.8-2.7,2.1-4.1c0.5-2.9-1.2-4.5-3.1-6.1
				c-0.1-0.1-0.1-0.1-0.2-0.2c-0.8-0.7-1.7-1.7-1.9-2.7c-0.4-2.2,1.4-4.9,3.6-5.7c0.2,0.3,0.4,0.6,0.6,0.9c0.3,0.6,0.7,1.1,1.1,1.8
				c1.8-2,1.8-3.4,0.2-4.9C58.2,83.1,58.1,83.1,58.1,83z"/>
			<path class="st5" d="M224.3,64.5c-1.5-1-2.3-2.3-1.8-4.1c0.6-2,1.6-3.6,3.5-4.5c0.6,1,1.1,1.8,1.7,2.8c1.8-1.8,1.8-3.3,0.4-4.7
				c-0.6-0.6-1.2-1.1-1.8-1.6c-1.9-1.5-4.2-1.5-6.1,0.1c-0.3,0.2-0.5,0.5-0.7,0.7c-3.1,3.4-2.8,8.2,1,11.2c0.4,0.3,0.7,0.6,1.1,0.9
				c0,0,0,0,0,0c1,0.7,1.2,1.6,0.8,2.8c-0.6,1.8-1.5,3.2-2.9,4.2c-0.7,0.5-1.4,0.9-2.3,1.1c-0.7,0.2-1.8,0.2-1.3,1.5
				c0.2,0.5,0.8,1.1,1.5,1.5c1.2,0.8,2.9,1.4,3.8,1.2c3.3-0.8,5.3-3,6.3-6.2C228.6,68.3,226.7,66.2,224.3,64.5z"/>
		</g>
	</g>
</g>
</svg>
